<!DOCTYPE svg PUBLIC "-//W3C//DTD SVG 1.1//EN" "http://www.w3.org/Graphics/SVG/1.1/DTD/svg11.dtd">
<svg id="dunkin-logo" xmlns="http://www.w3.org/2000/svg" width="156" height="72" viewBox="0, 0, 480, 221.5">
  <g>
    <path d="M280.3 45.74l.1-.2-.1.2m-147.1 129.1l-.1-.1-.1-.1.2.2zm200.9-130.9l.1.1.1.1-.2-.2zm118.8 61.1c2.9-3.8 3.4-7.4 3.4-12.7v-16.9c2 1.6 4.1 2.2 5.7 2.6 2.5.5 11 1.1 15.8-11.3 1.4-3.6 2.2-7.9 2.2-11.2 0-8.1-5.7-16.8-15-16.8-5 0-9.1 2.9-11.7 6.9l-.7-.9-.1-.1c-3.1-3.7-7.6-5.8-12.3-5.8-5.3 0-10.4 2.7-13.2 7.1-1.1 1.7-1.8 3.3-2.3 5-2.5-3.1-4.7-5.8-4.7-5.8-3.4-4.2-7.4-6.2-12.2-6.2-6.6 0-12 3.4-14.7 8.7-.6-1.2-1.3-2.3-2.4-3.5-3-3.4-7.4-5.3-12-5.3s-9 1.9-11.9 5.3c-.9.9-1.5 1.9-2.1 2.8-2.8-4.8-8.1-8.1-14-8.1-5.4 0-10.2 2.7-13.3 7.3 0 0-.4.5-.9 1.4-.6-1.1-1.3-2.2-2.3-3.3-3-3.4-7.5-5.4-12.1-5.4-6.4 0-11.7 3.5-14.3 8.9-.5-1-1.1-2-1.9-3l-.1-.1c-3.1-3.7-7.6-5.8-12.3-5.8-5.3 0-10.3 2.7-13.2 7.1-1.1 1.7-1.8 3.3-2.3 5-2.5-3.1-4.7-5.8-4.7-5.8-3.4-4.2-7.4-6.2-12.2-6.2-6.4 0-11.7 3.2-14.4 8.2-.5-.8-1-1.6-1.7-2.4-3-3.6-7.8-5.8-12.5-5.8-4.8 0-9.4 2.2-12.5 6.1-1.2 1.5-1.9 2.8-2.5 4.3-.7-1.8-1.7-3.6-3.3-5.3-3-3.2-7.4-5.1-11.8-5.1-4.7 0-9.6 2.4-12.6 6.2l-.1.1c-2.5 3.3-3.1 6.1-3.3 10.4-1.7-2.6-3.8-5-6.1-7.1-6.9-6.1-15.2-9.1-25.6-9.1h-11.9c-8.3 0-14.4 3.9-16.7 10.8-.6 1.7-.7 2.8-.8 5.3h-.3c-1.7-9.5-10-16.7-19.9-16.7H50.4c-.4-2.1-1.2-3.9-2.1-5.6 3 .6 6.4.1 9.6-1.7l-2 .5 2.6-.9h.1l.1-.1c4.4-3.3 6.9-8.4 6.9-13.8 0-1.4-.2-2.8-.5-4.2-1.7-6.9-7.1-11.7-14-12.9-3.3-.5-10.3.2-15.9 4.3-4.3 3.2-7.1 7.8-7.8 13.4-.1.9-.2 1.7-.2 2.5 0 2 .4 3.8.9 5.5-5.6-2.7-12.2-2.1-18.1 2h-.1c-6.3 4.5-8.1 9.7-8.6 13.3-.3 2.7 0 5.5 1.1 8-1.5 3-2.4 6.3-2.4 9.8v98.5c0 11.2 9.1 20.4 20.3 20.4h84.9c9.8 0 18.1-7.1 19.9-16.4h.9v1.2c.1 1.3.2 2.3.5 3.4 1 3.7 3.2 6.6 6.6 8.8 3.3 2.2 6.5 2.7 11.7 2.7h8.2c4.3 0 8.3-.3 11.1-.8h.1c6.2-1.3 12.2-4.4 16.9-8.7l1.2-1.2.1-.1c1.8-1.8 3.3-3.8 4.6-5.9 1.2 2 2.6 3.9 4.1 5.7 7 7.9 17.2 12.5 27.9 12.5 10.6 0 20.7-4.5 27.8-12.5l.8-1c.5 2.2 1.3 4.1 2.7 6l.1.2c3 3.9 7.8 6.2 12.7 6.2 4.7 0 9.2-2.1 12.3-5.8l.1-.1c1.6-2.1 2.6-4.1 3.1-6.5l4.8 6.1c3.2 4.1 7.5 6.4 12.6 6.4 4.9 0 9.6-2.3 12.5-6 1.4-1.9 2.3-3.7 2.8-5.9l.2.2c5.9 8 15.3 12.8 25.1 12.8 8.9 0 17.4-3.9 23.3-10.8l1.7-2.2c4.1-5.5 6-12 6-20.4v-9.9c1.5.5 3.2.8 5 .8v23.4l.1 2.7c.2 3.4 1 5.8 2.6 8.4l.2.3c3.1 4.2 7.8 6.6 13.1 6.6 5.6 0 10.4-2.7 13.3-7.3 1.5-2.4 2.2-4.8 2.5-7.8 0 0 0-1 .1-1.8h1.7c.2 1.3.6 2.6 1.2 3.8 3.8 8.6 14.4 14.1 26.9 14.1 8.9 0 15.7-2.5 20.9-7.7 1.8-1.8 3.2-3.8 4.4-6 2-3.8 3-8.1 3-12.4 0-7-2.7-13.6-7.3-17.9 2.3-2 4-4.7 4.7-7.8 1.7 1.3 3.8 2.1 6.1 2.1 4.7 0 8.7-3.4 9.5-8v-.4l.1-1.3c0-5.4-4.3-9.7-9.7-9.7-3.7 0-6.9 2.1-8.6 5-1.8-2.7-4.5-5-7.7-6.7 1.3-1 2.3-2 3.2-3.2zm13.4 18.9zM427 45.74l.1-.1-.1.1zm-60.2-1.7l.1-.1-.1.1z" fill="#FFF"/>
    <path d="M232.6 45.04c-2.9 0-5.7 1.4-7.5 3.7-1.8 2.1-2.1 3.4-2.1 7.8v23.5c0 4.1-1.9 6.5-5.3 6.5-3.3 0-5.3-2.6-5.3-6.8v-23.2c0-4.2-.7-6.4-2.6-8.4-1.8-1.8-4.5-3.1-7.2-3.1-2.8 0-5.8 1.5-7.7 3.8-1.7 2.2-2 3.6-2 9.2v20.7c0 7.8 1.1 11.9 4.8 16.9 4.7 6.4 12.2 10.2 20 10.2 7 0 13.9-3.2 18.6-8.6 4.2-4.8 6.2-10.5 6.2-18.5v-20.9c0-5.3-.4-7.1-2.3-9.3-1.8-2.1-4.8-3.5-7.6-3.5M184 64.44c-1.6-4.4-4.3-8.3-7.8-11.5-5.7-5.1-12.5-7.5-21.4-7.5h-11.9c-5.6 0-9.3 2.2-10.7 6.4-.4 1.3-.4 1.9-.4 6.8v32.4c0 4.1 0 5 .3 6.4.6 2.3 1.9 3.9 4.1 5.3 1.8 1.2 3.6 1.6 8.2 1.6h8.2c4.1 0 7.6-.3 10-.7 5.1-1.1 10.1-3.6 13.9-7.1 6-5.6 9.5-13.5 9.5-21.6-.1-3.7-.8-7.2-2-10.5zm-24.7 0l.9.4c3.8 1.9 6.3 5.8 6.3 10.2 0 3.6-1.9 7.2-4.8 9.4-2.3 1.6-3.9 1.9-10.6 1.9v-22.8h1.6c3.1 0 5 .3 6.6.9zm134.2-19.4c-3.2 0-6.3 1.7-7.9 4.2-1.4 2-1.8 3.8-1.8 7.7v10.9l-2.8-3.5-12.6-15.5c-2.2-2.7-4.4-3.9-7.2-3.9-6.2.1-10.2 4.2-10.2 10.5v37.3c0 4.3.4 6.1 2 8.3 1.9 2.4 4.8 3.8 7.8 3.8 2.9 0 5.7-1.3 7.5-3.5 1.7-2.1 2.2-3.9 2.2-7.8v-12.4l15.4 19.7c2 2.6 4.6 4 7.7 4 3 0 5.8-1.3 7.6-3.6 1.7-2.2 2.1-4.1 2.1-8.8v-36c0-3.6-.6-5.7-2.3-7.8-1.9-2.3-4.6-3.6-7.5-3.6zm55.7 29.2l6.8-9.8 3.1-4.6c1-1.4 1.5-3.3 1.5-5.1 0-5.2-4.5-9.7-9.8-9.7-3.3 0-6.1 1.6-8 4.5l-10.1 14.9-.7 1v-9.4c0-3.5-.7-5.7-2.6-7.7-1.8-2-4.5-3.3-7.3-3.3-5.8 0-9.7 4.4-9.7 10.9v37.8c0 6.8 3.8 11.1 9.9 11.1 5.8 0 9.7-4.4 9.7-11.2v-10.2l14.6 18.5c1.4 1.8 4.1 2.9 6.8 2.9 5.3 0 9.7-4.5 9.7-9.9 0-2-.6-3.8-1.9-5.3l-12-15.4zm91-29.2c-3.2 0-6.3 1.7-7.9 4.2-1.4 2-1.8 3.8-1.8 7.7v10.9l-2.8-3.5-12.6-15.5c-2.2-2.7-4.4-3.9-7.2-3.9-6.1 0-10.2 4.1-10.2 10.4v37.3c0 4.3.4 6.1 2 8.3 1.9 2.4 4.8 3.8 7.8 3.8 2.9 0 5.7-1.3 7.5-3.5 1.7-2.1 2.2-3.9 2.2-7.8v-12.3l15.4 19.7c2 2.6 4.6 4 7.7 4 3 0 5.8-1.3 7.6-3.6 1.7-2.2 2.1-4.1 2.1-8.8v-36c0-3.6-.6-5.7-2.3-7.8-1.9-2.3-4.5-3.6-7.5-3.6zm24.8 0c-5.1 0-8.6 6.2-8.6 11.3 0 2.3 0 5.3.5 8.1.7 3.5 2.4 6.6 6.3 7.3 4.1.8 6.9-3 8.6-7.3 1.2-3.2 1.8-6.8 1.8-9 .1-5.1-3.4-10.4-8.6-10.4zm-86.2 0c-2.8 0-5.4 1.2-7.2 3.2-2 2.2-2.5 4-2.5 8.9v36.5c0 4.1.6 6.1 2.5 8.1 1.7 1.8 4.6 3.1 7.2 3.1 2.6 0 5.4-1.2 7.2-3.3 1.8-1.9 2.5-4.2 2.5-7.9v-36.5c0-4.8-.6-6.8-2.6-9-1.7-2-4.3-3.1-7.1-3.1z" fill="#F5821F"/>
    <path d="M361.2 120.74c-.2-2.5-.8-3.8-2.1-5.4-1.7-2.1-4.7-3.5-7.5-3.5-2.9 0-5.6 1.4-7.4 3.7-1.3 1.6-1.9 2.7-2 5.2 0 .7-.1 1.5-.1 2.5v23.5c0 4.1-2 6.7-5.5 6.7s-5.5-2.7-5.5-7v-23.3c0-.9 0-1.8-.1-2.5-.3-2.6-1-4.2-2.5-5.8-1.7-1.8-4.4-3-7.1-3-2.8 0-5.7 1.5-7.6 3.7-1.2 1.5-1.7 2.6-1.9 5.1-.1 1-.1 2.3-.1 4v20.8c0 7.7 1.1 11.8 4.6 16.6l.1.2c4.7 6.3 12.1 10.2 19.9 10.2 6.9 0 13.8-3.2 18.6-8.6.5-.6 1-1.2 1.4-1.7 3.2-4.4 4.7-9.7 4.7-16.6v-21c.2-1.5.2-2.7.1-3.8m106.1-1c1.5 0 2.7-.7 2.7-2.3 0-.7-.3-1.5-1-1.8-.6-.4-1.4-.4-2.1-.4h-3.7v8.5h1v-3.9h1.9l.6 1 1.8 2.9h1.2l-1.9-2.9-.5-1.1m-1.4-.8h-1.6v-3h2.4c1.1 0 2.2.2 2.2 1.5 0 1.7-1.8 1.5-3 1.5z" fill="#E11383"/>
    <path d="M473.6 120.74c.1-.4.1-.9.1-1.3 0-4.2-3.4-7.6-7.6-7.6-4.2 0-7.7 3.4-7.7 7.6 0 .5 0 .9.1 1.3.6 3.6 3.8 6.3 7.5 6.3 3.8 0 6.9-2.7 7.6-6.3h-.9c-.6 3.1-3.3 5.4-6.6 5.4s-6-2.3-6.6-5.4c-.1-.4-.1-.9-.1-1.3 0-3.7 3-6.7 6.7-6.7s6.7 3 6.7 6.7c0 .5 0 .9-.1 1.3h.9m-295.8 41.5c5.3-5.5 8.4-12.9 8.4-20.5 0-3.6-.7-7.2-1.9-10.6-1.5-3.9-3.8-7.4-6.8-10.4l-1-.9c-5.7-5.1-12.5-7.5-21.3-7.5h-12c-5.6 0-9.2 2.2-10.5 6.3-.2.7-.3 1.1-.4 2-.1.9-.1 2.3-.1 4.7v36.7c0 .9.1 1.4.3 2.1.6 2.3 1.8 3.8 4 5.2 1.7 1.2 3.5 1.6 8.1 1.6h8.2c4.1 0 7.6-.3 10-.7 5.1-1 10-3.6 13.8-7.1l1.2-.9m-26.4-31.1v-.9h1.8c3.2 0 5.2.3 6.9.9l.7.3c3.9 1.9 6.4 5.9 6.4 10.3 0 3.7-1.9 7.4-4.8 9.5-2.3 1.6-4 1.9-10.7 2h-.2v-22.1zm96.7 0c-1.4-3.9-3.6-7.4-6.4-10.4-5.7-6-13.7-9.8-22.7-9.8s-17.1 3.8-22.8 9.8c-2.8 3-4.9 6.5-6.3 10.3-1.2 3.2-1.8 6.7-1.8 10.3 0 8 2.9 15.3 7.8 20.8 5.6 6.4 13.9 10.4 23.2 10.4 9.1 0 17.4-4 23-10.4 4.9-5.5 7.9-12.7 7.9-20.5 0-3.7-.7-7.2-1.9-10.5m-29 22.5c-6.5 0-11.8-5.4-11.8-11.9 0-4.7 2.9-8.8 7.1-10.6 1.4-.6 3-.9 4.7-.9 1.7 0 3.2.3 4.7.9 4.2 1.8 7.1 5.9 7.1 10.6 0 6.5-5.3 11.9-11.8 11.9zm86.4-32.9c-.2-2.2-.9-3.8-2.2-5.4-1.8-2.2-4.4-3.5-7.3-3.5-3.1 0-6.2 1.7-7.8 4.2-1 1.4-1.4 2.7-1.6 4.7-.1.8-.1 1.8-.1 2.9v11.5l-3.3-4.1-8.4-10.4-4.1-5c-2.2-2.7-4.3-3.8-7.1-3.8-5.5 0-9.4 3.5-9.9 8.8 0 .5-.1 1-.1 1.4v37.3c0 1 0 1.9.1 2.7.2 2.5.7 3.9 1.9 5.6 1.8 2.3 4.7 3.7 7.7 3.7 2.9 0 5.6-1.3 7.4-3.5 1.4-1.7 2-3.2 2.1-5.8v-14.8l11.5 14.7 4.2 5.4c2 2.6 4.5 3.9 7.6 3.9 3 0 5.7-1.3 7.5-3.6 1.2-1.6 1.8-3.1 2-5.7.1-.9.1-1.9.1-3v-36.1c-.1-.6-.1-1.4-.2-2.1m107.7 0c-.2-4.3-3.4-7.6-7.8-8.2-.6-.1-.9-.1-1.7-.2h-24.5c-7.7 0-8.5.1-10.5 1-2.6 1.1-4.7 4.3-4.9 7.4v.5c0 2.3 1 4.5 2.7 6.3 1.7 1.7 3.9 2.5 7.2 2.5h5.4v29.7c0 .9 0 1.6.1 2.3.1 2.4.6 3.7 1.6 5.3 1.8 2.5 4.7 4 7.9 4 3.3 0 6.2-1.6 7.9-4.3.9-1.5 1.4-2.9 1.6-5 .1-.7.1-1.5.1-2.5v-29.6h4.5c3.5 0 5.9-.7 7.4-2.1 1.9-1.7 3.1-4.3 3.1-6.9l-.1-.2m37.2 18.2c-2.7-2.3-7.5-4.7-12.5-6.2-2-.6-3.3-1.2-4.3-1.7-1.2-.7-1.7-1.4-1.7-2.5 0-1.3 1.1-2.5 2.5-2.5 1.1 0 2.1.5 4.2 2.2 2 1.5 3.5 2.4 5 2.9 1 .3 1.9.5 3 .5 1 0 1.9-.2 2.7-.5 2.9-1.1 4.7-3.8 4.7-7.4 0-1-.2-2-.5-2.9-1.9-5.7-9.2-9.8-18.3-9.8-8.8 0-15.7 3.7-19.1 9.8-1.5 2.7-2.4 5.9-2.4 9.4v1c.3 7.6 4.5 12.8 12.7 15.7 1.6.6 3.2 1.1 4.8 1.7 3.1 1.1 3.4 1.3 3.9 1.7 1.1.7 1.6 1.5 1.6 2.6 0 1.6-1 2.7-2.6 2.7-1.5 0-2.1-.4-6.3-3.7-2.5-2-4.5-2.8-6.8-2.8-4.9 0-8.7 3.8-8.7 8.7 0 1.6.3 3 1 4.4 2.7 6 10.9 10.4 21.1 10.4 7.2 0 12.5-2 16.4-5.9 1.3-1.3 2.4-2.8 3.2-4.5 1.5-2.9 2.3-6.1 2.3-9.5 0-5.5-2.3-10.8-5.9-13.8" fill="#E11383"/>
    <path d="M17 59.44c-4.1-.1-7.9-1.8-10.7-4.4-.3 1.1-.5 2.4-.5 3.6v11.6c1.6-3.4 5.3-7 11.2-10.8m10.4 55.4c-4.7-.6-7.8-2.6-9.1-5.7L6.4 78.94l-.5-1v79.6c0 7.9 6.4 14.3 14.3 14.3h37.5c-1.3-1.3-2.4-2.8-3.3-4.6 0 0-23-44.5-27-52.4" fill="#F5821F"/>
    <path d="M105.4 44.34H84.2l.1.1c.4.5.7 1.1.9 1.7.2.4.3.9.4 1.4 10.3 26 11.7 29.7 11.9 30.2v.1-.1c.4.9.5 1.9.5 2.9 0 2.4-1 4.9-3.2 7.5 2.6 8 7.3 23.9 15.7 55l.5 1.7v-.1c3.3 10.7-1.6 20.7-12.9 27.3h7.3c7.9 0 14.3-6.4 14.3-14.3v-99.1c0-7.9-6.4-14.3-14.3-14.3" fill="#E11383"/>
    <path d="M61.3 45.64c-6.1 1.3-13.3 3.5-19.9 6.1-6.6 2.6-13.4 5.9-18.7 9.2-9.3 5.5-14.1 10.5-13.2 13.8v.3c0 .4.1.7.2 1l.4.7.2.4 12 30.4c.7 1.8 3 2.9 6.8 3.2.6.1 1.2.4 1.5 1l27.7 53.6c5.3 10.5 20.5 10.2 32.3 5.4 13.3-5.4 19.4-14.6 16.3-24.8l-.5-1.7c-8.9-32.9-13.7-48.7-16.1-56.2-.2-.6-.1-1.3.4-1.8 2.6-2.8 3.5-5.1 2.8-7l-12-30.4-.1-.4-.2-.8-.5-.9-.2-.2c-1.7-3-8.6-3.3-19.2-.9M37.7 7.94c-3.4 2.5-5.5 6.2-6.2 10.6-.9 6.1 2.6 10.2 5.7 13.8 3.3 3.9 6.2 7.3 4.4 13.2-.2.6-.1 1.1.2 1.6.3.5.7.9 1.3 1 1.1.4 2.3-.3 2.7-1.4 2.5-8.1-1.8-13.2-5.3-17.2-3.3-3.8-5.3-6.4-4.7-10.4.5-3.3 2-5.9 4.5-7.7 3.6-2.7 8.3-3 9.5-2.8 5.1.8 6.6 4.7 7 6.3.3 1.1.3 2.2.2 3.3-.3 2.3-1.4 4.3-3.2 5.7h-.1c-2.1 1.1-3.9 1.1-5 0-1.1-1-1.2-2.6-.8-3.5.4-.8 1.5-1.1 3.1-.9.6.1 1.1 0 1.6-.4.5-.3.8-.8.9-1.4.2-1.2-.6-2.3-1.8-2.5-3.5-.6-6.3.6-7.6 3.1-1.4 2.7-.7 6.3 1.6 8.5 2.6 2.5 6.4 2.7 10.3.6l.3-.2c4.2-3.1 6-8.5 4.8-13.6-1.2-5-5.2-8.6-10.5-9.5-2.3-.1-8.2.3-12.9 3.8m-25.3 23.4c-4.4 3.1-6.4 6.8-6.8 10.4-.4 3.1.4 6 2 8.3 3.3 4.8 10.1 7.2 17 2.7l.1-.1c3.6-2.7 3.5-8.1 1.1-11.4-2.3-3.2-6-3.7-9.5-1.4-1 .7-1.2 2-.6 3 .3.5.8.8 1.4.9.6.1 1.1 0 1.6-.3 2-1.4 3-.5 3.6.3.7.9 1 2.3.8 3.5-.1.9-.4 1.5-1 1.9-4.7 3.1-8.9 1.4-11-1.6-2.3-3.4-2.1-8.6 3.7-12.7 5.7-3.9 9.9-1.5 11.8.3 3.7 3.4 5.2 9.3 3.1 12.9-.6 1-.2 2.4.8 2.9.5.3 1.1.4 1.6.2.6-.2 1-.5 1.3-1 3-5.4 1.3-13.4-4-18.2-4.6-4.4-11.1-4.7-17-.6" fill="#683817"/>
    <path d="M72.9 54.04c-7 .8-17.4 3.6-27.4 7.5-10 4-19.6 9.4-25.2 13.7-3.9.3-6.3 0-7.2-.5.6-2.4 10.2-11.2 30-19.1 19.8-7.9 32.5-8.3 34.6-6.9-.2 1-1.7 2.9-4.8 5.3m30 92.8c2.6 8.6-3.9 15.7-13.9 19.7-10.4 4.2-23.1 4.4-27-3.4-1.3-2.7-18.7-34.6-27.2-52.5 8.7-.9 19.3-4 27-7.1 7.8-3.1 17.6-8.1 24.5-13.4 6.3 18.9 15.7 53.8 16.6 56.7m-42.5-47.4c-18.3 7.2-32.1 7.8-34.2 6l-10.1-25.1c9.4.7 24-3.8 33.6-7.6 9.6-3.8 23.3-10.6 29.7-17.5l10.1 25.1c-.4 2.7-10.8 11.8-29.1 19.1" fill="#FFF"/>
    <path d="M67.7 119.14c-1-1.1-2.2-1.9-3.6-2.4-2.3-.9-4.7-.8-7.4-.1-1.2.3-2.5.7-3.7.9-1.8.4-2.6 1.3-2.5 2.5 0 .4.1.6.7 1.9 1.4 3 2.7 6.1 4.1 9.1.5 1.1.6 1.4.9 1.8.5.6 1 1 1.9 1.2.7.2 1.3.2 2.6-.1l2.4-.6c1.2-.3 2.2-.7 2.8-1 1.4-.7 2.5-1.9 3.2-3.3 1.1-2.2 1.2-4.9.3-7.2-.4-.9-1-1.9-1.7-2.7m-4.3 7.9c-.5.6-.9.9-2.9 1.4-.9-2.1-1.8-4.3-2.7-6.4l.5-.1c.9-.2 1.5-.3 2.1-.3h.3c1.4.2 2.6 1.1 3.1 2.3.4 1.1.2 2.3-.4 3.1z" fill="#F5821F"/>
    <path d="M84 111.04c-.9-1-2-1.7-3.2-2.1-2.1-.6-4.2-.2-6.8 1.1-1.2.6-2.3 1.1-3.5 1.6-1.6.7-2.5 1.8-2.4 3.2 0 .4.1.6.6 2l3.6 9.3c.4 1.2.5 1.4.8 1.8.4.6 1 .9 1.7 1 .6.1 1.2 0 2.5-.5.8-.3 1.5-.7 2.3-1 1.1-.5 2-1.1 2.6-1.6 1.3-1 2.3-2.5 3-4.1 1-2.6 1.2-5.5.4-7.9-.5-1.1-1-2-1.6-2.8m-4.1 9.3c-.5.8-.9 1.1-2.7 2l-2.4-6.6.5-.2c.9-.4 1.4-.6 1.9-.7h.3c1.3 0 2.3.8 2.8 2 .3 1.1.2 2.5-.4 3.5z" fill="#E11383"/>
  </g>
  <g fill="#683817" stroke="#683817">
    <path d="M14.918 192.078q3.562 0 6.37 2.678 2.626 2.496 2.626 6.292 0 3.666-2.626 6.28-2.626 2.612-6.318 2.612-3.718 0-6.344-2.613Q6 204.714 6 201.022q0-3.718 2.613-6.33 2.613-2.614 6.305-2.614zm.052 3.952q-2.054 0-3.536 1.482-1.482 1.482-1.482 3.536 0 2.054 1.47 3.51 1.468 1.456 3.548 1.456 2.054 0 3.51-1.443 1.456-1.44 1.456-3.52t-1.456-3.55q-1.456-1.47-3.51-1.47zm22.672 6.474v-8.112q.026-1.014.56-1.612.532-.598 1.416-.598.91 0 1.456.61.546.612.546 1.6v12.922q0 1.222-.312 1.664-.624.962-1.794.962-.546 0-.936-.247t-.936-1l-7.072-9.075v8.008q0 1.014-.546 1.625-.546.62-1.43.62-.884 0-1.443-.62-.55-.62-.55-1.61V194.5q0-.988.34-1.456.6-.856 1.56-.856.55 0 .97.247.42.247.91.897zm11.752-6.526v3.224h4.42q.832.026 1.34.468.506.442.506 1.17t-.507 1.196q-.507.468-1.34.468h-4.418v3.536h5.694q.91.026 1.47.52.55.494.55 1.3t-.56 1.313q-.56.507-1.47.507h-7.36q-2.32-.052-2.32-2.314v-12.714q.05-2.314 2.31-2.314h7.23q.91.026 1.45.52t.545 1.3-.546 1.313q-.545.51-1.455.51h-.417zm24.05 0v11.648q-.026 1.014-.572 1.625-.546.62-1.43.62-.884 0-1.43-.62-.546-.62-.546-1.61v-11.65h-3.224q-.936-.02-1.482-.5-.546-.48-.546-1.31 0-.803.56-1.31.558-.506 1.468-.506h10.426q.91.025 1.47.52.558.493.558 1.3t-.56 1.31q-.558.51-1.468.51h-.416zm15.106 10.738h-6.968l-.546 1.274-.156.39q-.65 1.404-1.95 1.404-.806 0-1.404-.56-.598-.558-.598-1.338 0-.494.286-1.118l.182-.39 5.746-12.87q.546-1.222 1.898-1.222 1.378 0 1.898 1.222l5.902 12.818q.442.936.442 1.56 0 .78-.598 1.352-.598.572-1.404.572-1.326 0-1.95-1.378l-.182-.416zm-1.378-3.432l-2.106-4.992-2.054 4.992zm13.312-11.206q2.262 0 3.874.988t1.612 2.366q0 .754-.507 1.3t-1.235.546q-.52 0-.988-.338-.026 0-.13-.09-.104-.092-.325-.274-.22-.182-.43-.338-1.04-.832-2.027-.832-.806 0-1.378.468-.572.468-.572 1.118 0 .65.455 1.014t1.65.65q2.185.52 3.46 1.144 2.807 1.326 2.807 4.446 0 2.522-1.755 4.108-1.755 1.586-4.563 1.586-2.548 0-4.46-1.274-1.91-1.274-1.91-2.938 0-.754.533-1.326.533-.572 1.26-.572.99 0 2.133 1.014 1.43 1.326 2.73 1.326.884 0 1.47-.533.584-.533.584-1.34 0-1.3-2.028-1.897l-1.716-.494q-1.976-.572-2.964-1.274-1.612-1.092-1.612-3.458 0-2.236 1.677-3.666 1.67-1.43 4.35-1.43zm16.276 3.9v11.648q-.026 1.014-.572 1.625-.546.62-1.43.62-.884 0-1.43-.62-.546-.62-.546-1.61v-11.65h-3.224q-.936-.02-1.482-.5-.546-.48-.546-1.31 0-.803.56-1.31.558-.506 1.468-.506h10.426q.91.025 1.47.52.558.493.558 1.3t-.56 1.31q-.558.51-1.468.51h-.416zm11.128 0v3.224h4.42q.832.026 1.34.468.506.442.506 1.17t-.507 1.196q-.507.468-1.34.468h-4.417v3.536h5.694q.91.026 1.47.52.558.494.558 1.3t-.56 1.313q-.558.507-1.468.507h-7.36q-2.314-.052-2.314-2.314v-12.714q.052-2.314 2.314-2.314h7.228q.91.026 1.456.52.546.494.546 1.3t-.546 1.313q-.546.51-1.456.51h-.416zm26.416 10.738h-6.968l-.546 1.274-.156.39q-.65 1.404-1.95 1.404-.806 0-1.404-.56-.598-.558-.598-1.338 0-.494.286-1.118l.182-.39 5.746-12.87q.546-1.222 1.898-1.222 1.378 0 1.898 1.222l5.902 12.818q.442.936.442 1.56 0 .78-.598 1.352-.598.572-1.404.572-1.326 0-1.95-1.378l-.182-.416zm-1.378-3.432l-2.106-4.992-2.054 4.992zm19.058-.78v-8.112q.026-1.014.56-1.612.532-.598 1.416-.598.91 0 1.456.61.546.612.546 1.6v12.922q0 1.222-.312 1.664-.624.962-1.794.962-.546 0-.936-.247t-.936-1l-7.072-9.075v8.008q0 1.014-.546 1.625-.546.62-1.43.62-.884 0-1.443-.62-.56-.62-.56-1.61V194.5q0-.988.34-1.456.597-.856 1.56-.856.545 0 .96.247.417.247.91.897zm7.774 4.394v-12.246q.052-2.314 2.314-2.314h3.822q2.002 0 3.367.403 1.37.41 2.59 1.4 1.61 1.3 2.5 3.11.89 1.81.89 3.81 0 2.24-1.12 4.21-1.11 1.98-3.06 3.18-2.03 1.25-5.15 1.25h-3.82q-2.31-.05-2.31-2.31zm3.978-.832h1.69q2.392 0 3.588-.78 1.04-.676 1.638-1.807.598-1.14.598-2.44 0-2.24-1.6-3.62-1.598-1.38-4.198-1.38h-1.716zm26.52-7.93l3.172-4.576.26-.364q.78-1.04 1.742-1.04.806 0 1.404.585.598.59.598 1.37 0 .65-.494 1.35l-.234.37-4.446 6.45v5.36q-.026 1.02-.56 1.63-.532.61-1.416.61-.884 0-1.443-.62-.56-.62-.56-1.61v-5.35l-4.45-6.45q-.73-1.09-.73-1.715 0-.78.6-1.366.6-.586 1.4-.586.99 0 1.74 1.04l.23.363zm16.51-6.058q3.562 0 6.37 2.678 2.626 2.496 2.626 6.292 0 3.666-2.626 6.28-2.626 2.612-6.318 2.612-3.718 0-6.344-2.613-2.626-2.613-2.626-6.305 0-3.718 2.613-6.33 2.62-2.614 6.31-2.614zm.052 3.952q-2.054 0-3.536 1.482-1.482 1.482-1.482 3.536 0 2.054 1.47 3.51 1.468 1.456 3.548 1.456 2.054 0 3.51-1.443 1.456-1.44 1.456-3.52t-1.456-3.55q-1.456-1.47-3.51-1.47zm11.128 6.89v-8.528q0-1.014.533-1.612.53-.598 1.44-.598.91 0 1.45.61.54.612.54 1.6v8.528q0 1.326.88 2.236.88.91 2.16.91 1.61 0 2.49-1.3.543-.754.543-1.95v-8.424q.026-1.014.56-1.612.532-.598 1.416-.598.91 0 1.456.61.542.612.542 1.6v8.424q0 3.016-2 5.07-2 2.054-4.968 2.054t-5.02-2.04q-2.054-2.042-2.054-4.98zm17.81-5.824l-.676-2.548q-.156-.572-.156-.78 0-.676.572-1.222.572-.546 1.274-.546.702 0 1.222.507t.52 1.183q0 .234-.182.962l-.676 2.496q-.234.884-.43 1.21-.194.324-.48.324-.312 0-.52-.338-.208-.338-.468-1.248zm10.192 8.944h5.174q.91.026 1.456.52.546.494.546 1.3t-.546 1.313q-.546.507-1.456.507h-6.838q-2.314-.052-2.314-2.314v-12.974q.026-1.014.56-1.612.532-.598 1.442-.598.884 0 1.43.61.546.612.546 1.6v.442zm13.416 0h5.174q.91.026 1.456.52.546.494.546 1.3t-.546 1.313q-.546.507-1.456.507H277.7q-2.314-.052-2.314-2.314v-12.974q.026-1.014.56-1.612.532-.598 1.442-.598.884 0 1.43.61.546.612.546 1.6v.442zm15.704-3.12v-8.528q0-1.014.533-1.612.54-.598 1.45-.598t1.46.61q.55.612.55 1.6v8.528q0 1.326.89 2.236.89.91 2.16.91 1.61 0 2.5-1.3.546-.754.546-1.95v-8.424q.027-1.014.56-1.612.533-.598 1.417-.598.91 0 1.46.61.546.612.546 1.6v8.424q0 3.016-2 5.07-2 2.054-4.966 2.054-2.962 0-5.016-2.04-2.053-2.042-2.053-4.98zm28.366-.416v-8.112q.026-1.014.56-1.612.532-.598 1.416-.598.91 0 1.456.61.546.612.546 1.6v12.922q0 1.222-.312 1.664-.624.962-1.794.962-.546 0-.936-.247t-.936-1l-7.072-9.075v8.008q0 1.014-.546 1.625-.546.62-1.43.62-.884 0-1.443-.62-.56-.62-.56-1.61V194.5q0-.988.34-1.456.597-.856 1.56-.856.545 0 .96.247.417.247.91.897zm7.774 4.394v-12.246q.052-2.314 2.314-2.314h3.822q2.002 0 3.367.403 1.37.41 2.59 1.4 1.61 1.3 2.5 3.11.89 1.81.89 3.81 0 2.24-1.12 4.21-1.11 1.98-3.06 3.18-2.03 1.25-5.15 1.25h-3.82q-2.31-.05-2.31-2.31zm3.978-.832h1.69q2.392 0 3.588-.78 1.04-.676 1.638-1.807.598-1.14.598-2.44 0-2.24-1.6-3.62-1.598-1.38-4.198-1.38h-1.716zm18.148-10.088v3.224h4.42q.832.026 1.34.468.506.442.506 1.17t-.507 1.196q-.507.468-1.34.468h-4.418v3.536h5.694q.91.026 1.47.52.55.494.55 1.3t-.56 1.313q-.56.507-1.47.507h-7.36q-2.32-.052-2.32-2.314v-12.714q.05-2.314 2.31-2.314h7.23q.91.026 1.45.52t.545 1.3-.546 1.313q-.545.51-1.455.51h-.417zm13.936 8.736v2.912q0 1.014-.546 1.625-.546.62-1.43.62-.884 0-1.443-.62-.55-.62-.55-1.61v-12.98q.05-2.31 2.32-2.31h3.15q2.84 0 4.4 1.04 1.35.88 2.13 2.3.78 1.42.78 2.98 0 1.82-1.03 3.15-1.025 1.33-2.923 2l2.965 2.16q1.095.81 1.095 1.85 0 .83-.574 1.43t-1.374.6q-.65 0-1.38-.57zm0-3.432h1.508q1.56 0 2.21-.39 1.222-.754 1.222-2.21 0-.754-.403-1.378-.403-.624-1.08-.962-.545-.26-2.027-.26h-1.43zm16.796-9.204q2.262 0 3.874.988t1.612 2.366q0 .754-.507 1.3t-1.235.546q-.52 0-.988-.338-.026 0-.13-.09-.104-.092-.325-.274-.22-.182-.43-.338-1.04-.832-2.027-.832-.806 0-1.378.468-.572.468-.572 1.118 0 .65.455 1.014t1.65.65q2.185.52 3.46 1.144 2.807 1.326 2.807 4.446 0 2.522-1.755 4.108-1.755 1.586-4.563 1.586-2.548 0-4.46-1.274-1.91-1.274-1.91-2.938 0-.754.533-1.326.533-.572 1.26-.572.99 0 2.133 1.014 1.43 1.326 2.73 1.326.884 0 1.47-.533.584-.533.584-1.34 0-1.3-2.028-1.897l-1.716-.494q-1.976-.572-2.964-1.274-1.612-1.092-1.612-3.458 0-2.236 1.677-3.666 1.68-1.43 4.36-1.43zm16.276 3.9v11.648q-.026 1.014-.572 1.625-.546.62-1.43.62-.884 0-1.43-.62-.546-.62-.546-1.61v-11.65h-3.224q-.936-.02-1.482-.5-.546-.48-.546-1.31 0-.803.56-1.31.558-.506 1.468-.506h10.426q.91.025 1.47.52.558.493.558 1.3t-.56 1.31q-.558.51-1.468.51h-.416zm15.106 10.738h-6.968l-.546 1.274-.156.39q-.65 1.404-1.95 1.404-.806 0-1.404-.56-.598-.558-.598-1.338 0-.494.286-1.118l.182-.39 5.746-12.87q.546-1.222 1.898-1.222 1.378 0 1.898 1.222l5.902 12.818q.442.936.442 1.56 0 .78-.598 1.352-.598.572-1.404.572-1.326 0-1.95-1.378l-.182-.416zm-1.378-3.432l-2.106-4.992-2.054 4.992zm19.058-.78v-8.112q.026-1.014.56-1.612.532-.598 1.416-.598.91 0 1.456.61.546.612.546 1.6v12.922q0 1.222-.312 1.664-.624.962-1.794.962-.546 0-.936-.247t-.936-1l-7.072-9.075v8.008q0 1.014-.546 1.625-.546.62-1.43.62-.884 0-1.443-.62-.56-.62-.56-1.61V194.5q0-.988.34-1.456.597-.856 1.56-.856.545 0 .96.247.417.247.91.897zm7.774 4.394v-12.246q.052-2.314 2.314-2.314h3.822q2.002 0 3.367.403 1.365.41 2.587 1.4 1.612 1.3 2.496 3.11.884 1.81.884 3.81 0 2.24-1.118 4.21t-3.068 3.18q-2.028 1.25-5.148 1.25h-3.822q-2.314-.05-2.314-2.31zm3.978-.832h1.69q2.392 0 3.588-.78 1.04-.676 1.638-1.807.598-1.14.598-2.44 0-2.24-1.6-3.62-1.598-1.38-4.198-1.38h-1.716zm15.912 3.874q-.936 0-1.586-.663t-.65-1.6q0-.935.65-1.585.65-.65 1.586-.65t1.6.65q.662.65.662 1.586t-.663 1.6q-.66.662-1.59.662z"/>
    <path d="M467.65 194.65c.898 0 1.617-.42 1.617-1.378 0-.42-.18-.9-.6-1.08-.36-.238-.838-.238-1.258-.238h-2.22v5.092h.6v-2.336h1.14l.36.6 1.07 1.736h.72l-1.14-1.737-.3-.66m-.84-.48h-.96v-1.8h1.44c.66 0 1.31.12 1.31.9 0 1.01-1.08.89-1.8.89z"/>
    <path d="M472.328 195.44c.072-.29.072-.65.072-.94 0-3.04-2.444-5.5-5.464-5.5-3.02 0-5.536 2.46-5.536 5.5 0 .362 0 .65.072.94.43 2.606 2.732 4.56 5.392 4.56 2.732 0 4.96-1.954 5.464-4.56h-.647c-.43 2.244-2.37 3.91-4.74 3.91s-4.31-1.666-4.74-3.91c-.07-.29-.07-.65-.07-.94 0-2.678 2.16-4.85 4.82-4.85s4.82 2.172 4.82 4.85c0 .362 0 .65-.07.94h.65"/>
  </g>
</svg>
